<?xml version="1.0" encoding="UTF-8" standalone="no"?>
<!-- Created with Inkscape (http://www.inkscape.org/) -->

<svg
   width="203.67717mm"
   height="60.342606mm"
   viewBox="0 0 203.67717 60.342605"
   version="1.1"
   id="svg5"
   inkscape:version="1.2.2 (b0a8486541, 2022-12-01)"
   sodipodi:docname="juliana_logo.svg"
   inkscape:export-filename="juliana_logo.png"
   inkscape:export-xdpi="300"
   inkscape:export-ydpi="300"
   xmlns:inkscape="http://www.inkscape.org/namespaces/inkscape"
   xmlns:sodipodi="http://sodipodi.sourceforge.net/DTD/sodipodi-0.dtd"
   xmlns="http://www.w3.org/2000/svg"
   xmlns:svg="http://www.w3.org/2000/svg">
  <sodipodi:namedview
     id="namedview7"
     pagecolor="#ffffff"
     bordercolor="#666666"
     borderopacity="1.0"
     inkscape:showpageshadow="2"
     inkscape:pageopacity="0.0"
     inkscape:pagecheckerboard="0"
     inkscape:deskcolor="#d1d1d1"
     inkscape:document-units="mm"
     showgrid="false"
     inkscape:zoom="0.77886906"
     inkscape:cx="1.9258693"
     inkscape:cy="96.293465"
     inkscape:window-width="2560"
     inkscape:window-height="1371"
     inkscape:window-x="0"
     inkscape:window-y="0"
     inkscape:window-maximized="1"
     inkscape:current-layer="text206"
     showguides="false" />
  <defs
     id="defs2" />
  <g
     inkscape:label="Layer 1"
     inkscape:groupmode="layer"
     id="layer1"
     transform="translate(-13.562968,3.8532209)">
    <g
       aria-label="JulianA"
       id="text206"
       style="font-size:49.3889px;line-height:0px;font-family:'Tamil MN';-inkscape-font-specification:'Tamil MN';letter-spacing:0px;word-spacing:0px;stroke-width:0.264583">
      <g
         id="g590"
         transform="translate(-19.050006)">
        <path
           d="m 46.9618,15.00401 h 8.440486 v 25.249111 q 0,2.098064 -0.771701,3.858508 -0.771702,1.760444 -2.315105,3.038575 -1.519288,1.278131 -3.834392,2.001601 -2.315105,0.72347 -5.426027,0.72347 -1.736329,0 -3.207385,-0.313504 Q 38.37662,49.272383 37.098489,48.79007 35.844474,48.283641 34.735153,47.656633 33.625832,47.00551 32.612974,46.354387 l 2.363336,-3.014459 q 0.530545,0.506429 1.278131,1.061089 0.771701,0.530545 1.688097,0.964627 0.940511,0.434082 2.001601,0.72347 1.06109,0.265273 2.218642,0.265273 2.218642,0 3.496773,-1.157553 1.302246,-1.181668 1.302246,-3.159153 z"
           id="path472" />
        <path
           d="m 69.992268,23.468612 v 18.23145 q 0,0.771701 0.289388,1.44694 0.313504,0.651123 0.819933,1.133437 0.530545,0.482313 1.205784,0.771701 0.699355,0.289388 1.471056,0.289388 0.434082,0 0.988743,-0.241156 0.55466,-0.241157 1.109321,-0.675239 0.578776,-0.434082 1.109321,-1.012858 0.55466,-0.578777 0.988742,-1.278131 V 23.468612 h 7.86171 V 49.34473 h -7.86171 v -2.411567 q -1.543403,1.326362 -3.303847,2.122179 -1.736328,0.771702 -3.40031,0.771702 -1.929254,0 -3.593235,-0.627008 -1.663982,-0.651123 -2.893881,-1.736328 -1.2299,-1.109321 -1.929254,-2.580377 -0.699355,-1.495172 -0.699355,-3.183269 v -18.23145 z"
           id="path474" />
        <path
           d="M 99.895706,49.34473 H 92.106343 V 13.050641 l 7.789363,-2.170411 z"
           id="path476" />
      </g>
      <g
         id="g595">
        <path
           d="m 133.97115,35.960531 q -1.13343,0.482314 -2.29099,1.133437 -1.15755,0.627007 -2.09806,1.398709 -0.94051,0.747586 -1.5434,1.61575 -0.57878,0.844049 -0.57878,1.78456 0,0.747586 0.19293,1.422825 0.19292,0.651123 0.53054,1.157552 0.33762,0.482314 0.74759,0.771702 0.43408,0.289388 0.91639,0.289388 0.94051,0 1.92926,-0.578776 1.01286,-0.602892 2.19452,-1.495172 z m 7.88583,13.384199 h -7.88583 v -2.073948 q -0.65112,0.554661 -1.27813,1.012859 -0.62701,0.458198 -1.39871,0.819933 -0.74758,0.337619 -1.71221,0.530544 -0.96463,0.192926 -2.29099,0.192926 -1.78456,0 -3.2315,-0.506429 -1.42282,-0.506429 -2.43568,-1.398709 -0.98874,-0.916396 -1.51929,-2.146295 -0.53054,-1.2299 -0.53054,-2.652725 0,-1.495171 0.55466,-2.676839 0.57877,-1.205784 1.5434,-2.170411 0.98874,-0.964627 2.29099,-1.736329 1.32636,-0.771701 2.82153,-1.398709 1.51929,-0.627007 3.13504,-1.157552 1.61575,-0.530545 3.18327,-1.036974 l 0.86816,-0.192925 v -2.580378 q 0,-1.229899 -0.26527,-2.098063 -0.24116,-0.868165 -0.69935,-1.398709 -0.43409,-0.554661 -1.08521,-0.795818 -0.62701,-0.241156 -1.42282,-0.241156 -0.94052,0 -1.56752,0.241156 -0.62701,0.241157 -1.01286,0.675239 -0.38585,0.409967 -0.55466,0.964627 -0.16881,0.554661 -0.16881,1.181668 0,0.747586 -0.16881,1.422825 -0.14469,0.675239 -0.55466,1.205784 -0.38585,0.506429 -1.08521,0.819933 -0.67524,0.313503 -1.76044,0.313503 -0.81993,0 -1.51929,-0.241156 -0.67524,-0.265273 -1.15755,-0.699355 -0.48231,-0.458198 -0.7717,-1.06109 -0.26527,-0.627007 -0.26527,-1.326362 0,-1.350477 0.91639,-2.483914 0.9164,-1.157552 2.4598,-2.001601 1.56752,-0.844049 3.59324,-1.302246 2.04983,-0.482314 4.3167,-0.482314 2.7733,0 4.7749,0.506429 2.02572,0.506429 3.32797,1.422825 1.30224,0.916396 1.92925,2.218642 0.62701,1.302246 0.62701,2.917997 z"
           id="path480" />
        <path
           d="m 164.69452,31.61971 q 0,-0.988743 -0.21704,-1.760444 -0.21704,-0.771702 -0.57877,-1.278131 -0.36174,-0.530545 -0.84405,-0.795817 -0.4582,-0.265273 -0.96463,-0.265273 -0.50643,0 -1.18167,0.217041 -0.65112,0.192926 -1.37459,0.578776 -0.72347,0.361736 -1.47106,0.89228 -0.74758,0.530545 -1.44694,1.181668 v 18.95492 h -7.88582 V 23.468612 h 7.88582 v 2.025717 q 1.80868,-1.326362 3.88263,-1.929254 2.07394,-0.627008 4.14789,-0.627008 1.59164,0 3.01446,0.627008 1.44694,0.602892 2.50803,1.688097 1.08521,1.06109 1.71221,2.50803 0.65113,1.422825 0.65113,3.062691 V 49.34473 h -7.8376 z"
           id="path482" />
        <path
           d="m 195.97256,14.256424 16.08515,35.088306 h -8.60929 l -4.29259,-9.380997 h -13.33597 l -4.50963,9.380997 h -5.73953 l 16.76039,-35.088306 z m -8.58518,22.499924 H 197.733 l -5.08841,-11.09321 z"
           id="path484" />
      </g>
      <g
         id="g4223"
         transform="translate(5.556254)">
        <path
           d="M 90.734847,24.867321 98.572446,22.69691 V 49.34473 H 90.734847 Z"
           id="path478" />
        <path
           id="rect649"
           style="opacity:0.95;fill:#cb3c33;fill-opacity:1;stroke-width:1.52588;paint-order:markers fill stroke"
           d="m 85.915042,15.083304 a 2.8234104,2.8234104 0 0 0 -0.59716,3.111091 l -7.83533,7.83533 1.478994,1.478994 7.83533,-7.83533 a 2.8234104,2.8234104 0 0 0 3.111091,-0.59716 2.8234104,2.8234104 0 0 0 -8.8e-5,-3.992838 2.8234104,2.8234104 0 0 0 -3.992837,-8.7e-5 z" />
        <path
           id="rect649-3"
           style="font-size:49.3889px;line-height:0px;font-family:'Tamil MN';-inkscape-font-specification:'Tamil MN';letter-spacing:0px;word-spacing:0px;opacity:0.95;fill:#9558b2;fill-opacity:1;stroke-width:1.52588;paint-order:markers fill stroke"
           d="m 99.399331,19.076234 a 2.8234104,2.8234104 0 0 0 3.111089,0.59716 l 7.83533,7.835325 1.47899,-1.478995 -7.83533,-7.83533 a 2.8234104,2.8234104 0 0 0 -0.59716,-3.11109 2.8234104,2.8234104 0 0 0 -3.992839,9e-5 2.8234104,2.8234104 0 0 0 -8e-5,3.99284 z" />
        <path
           id="rect649-6"
           style="font-size:49.3889px;line-height:0px;font-family:'Tamil MN';-inkscape-font-specification:'Tamil MN';letter-spacing:0px;word-spacing:0px;opacity:0.95;fill:#389826;fill-opacity:1;stroke-width:1.52588;paint-order:markers fill stroke"
           d="m 97.477071,9.8497387 a 2.8234104,2.8234104 0 0 0 -1.777618,-2.62213 V -3.8532209 H 93.60784 V 7.2276087 a 2.8234104,2.8234104 0 0 0 -1.777618,2.62213 2.8234104,2.8234104 0 0 0 2.823425,2.8233003 2.8234104,2.8234104 0 0 0 2.823424,-2.8233003 z" />
      </g>
      <path
         id="rect649-7"
         style="font-size:49.3889px;line-height:0px;font-family:'Tamil MN';-inkscape-font-specification:'Tamil MN';letter-spacing:0px;word-spacing:0px;opacity:0.95;fill:#4063d8;fill-opacity:1;stroke-width:1.52588;paint-order:markers fill stroke"
         d="m 214.41683,50.842535 c -1.15544,1.87e-4 -2.19415,0.704365 -2.62213,1.777618 L 13.562968,52.834914 v 2.612908 L 211.7947,54.711766 c 0.42798,1.073253 1.46669,1.777431 2.62213,1.777618 1.55929,-5.9e-5 2.82332,-1.264134 2.82331,-2.823425 1e-5,-1.55929 -1.26402,-2.823365 -2.82331,-2.823424 z"
         sodipodi:nodetypes="ccccccsc" />
    </g>
  </g>
</svg>
